solid kasa
  facet normal 0.000000 0.000000 -1.000000
    outer loop
      vertex 0.0000 0.0000 0.0000
      vertex 0.0000 7.9000 0.0000
      vertex 58.0000 7.9000 0.0000
    endloop
  endfacet
  facet normal 0.000000 0.000000 -1.000000
    outer loop
      vertex 0.0000 0.0000 0.0000
      vertex 58.0000 7.9000 0.0000
      vertex 58.0000 0.0000 0.0000
    endloop
  endfacet
  facet normal 0.000000 0.000000 1.000000
    outer loop
      vertex 0.0000 0.0000 5.0000
      vertex 58.0000 0.0000 5.0000
      vertex 58.0000 7.9000 5.0000
    endloop
  endfacet
  facet normal 0.000000 0.000000 1.000000
    outer loop
      vertex 0.0000 0.0000 5.0000
      vertex 58.0000 7.9000 5.0000
      vertex 0.0000 7.9000 5.0000
    endloop
  endfacet
  facet normal 0.000000 -1.000000 0.000000
    outer loop
      vertex 0.0000 0.0000 0.0000
      vertex 58.0000 0.0000 0.0000
      vertex 58.0000 0.0000 5.0000
    endloop
  endfacet
  facet normal 0.000000 -1.000000 0.000000
    outer loop
      vertex 0.0000 0.0000 0.0000
      vertex 58.0000 0.0000 5.0000
      vertex 0.0000 0.0000 5.0000
    endloop
  endfacet
  facet normal 1.000000 0.000000 0.000000
    outer loop
      vertex 58.0000 0.0000 0.0000
      vertex 58.0000 7.9000 0.0000
      vertex 58.0000 7.9000 5.0000
    endloop
  endfacet
  facet normal 1.000000 0.000000 0.000000
    outer loop
      vertex 58.0000 0.0000 0.0000
      vertex 58.0000 7.9000 5.0000
      vertex 58.0000 0.0000 5.0000
    endloop
  endfacet
  facet normal 0.000000 1.000000 0.000000
    outer loop
      vertex 58.0000 7.9000 0.0000
      vertex 0.0000 7.9000 0.0000
      vertex 0.0000 7.9000 5.0000
    endloop
  endfacet
  facet normal 0.000000 1.000000 -0.000000
    outer loop
      vertex 58.0000 7.9000 0.0000
      vertex 0.0000 7.9000 5.0000
      vertex 58.0000 7.9000 5.0000
    endloop
  endfacet
  facet normal -1.000000 0.000000 0.000000
    outer loop
      vertex 0.0000 7.9000 0.0000
      vertex 0.0000 0.0000 0.0000
      vertex 0.0000 0.0000 5.0000
    endloop
  endfacet
  facet normal -1.000000 0.000000 0.000000
    outer loop
      vertex 0.0000 7.9000 0.0000
      vertex 0.0000 0.0000 5.0000
      vertex 0.0000 7.9000 5.0000
    endloop
  endfacet
  facet normal 0.000000 0.000000 -1.000000
    outer loop
      vertex 0.0000 66.9000 0.0000
      vertex 0.0000 90.0000 0.0000
      vertex 58.0000 90.0000 0.0000
    endloop
  endfacet
  facet normal 0.000000 0.000000 -1.000000
    outer loop
      vertex 0.0000 66.9000 0.0000
      vertex 58.0000 90.0000 0.0000
      vertex 58.0000 66.9000 0.0000
    endloop
  endfacet
  facet normal 0.000000 0.000000 1.000000
    outer loop
      vertex 0.0000 66.9000 5.0000
      vertex 58.0000 66.9000 5.0000
      vertex 58.0000 90.0000 5.0000
    endloop
  endfacet
  facet normal 0.000000 0.000000 1.000000
    outer loop
      vertex 0.0000 66.9000 5.0000
      vertex 58.0000 90.0000 5.0000
      vertex 0.0000 90.0000 5.0000
    endloop
  endfacet
  facet normal 0.000000 -1.000000 0.000000
    outer loop
      vertex 0.0000 66.9000 0.0000
      vertex 58.0000 66.9000 0.0000
      vertex 58.0000 66.9000 5.0000
    endloop
  endfacet
  facet normal 0.000000 -1.000000 0.000000
    outer loop
      vertex 0.0000 66.9000 0.0000
      vertex 58.0000 66.9000 5.0000
      vertex 0.0000 66.9000 5.0000
    endloop
  endfacet
  facet normal 1.000000 0.000000 0.000000
    outer loop
      vertex 58.0000 66.9000 0.0000
      vertex 58.0000 90.0000 0.0000
      vertex 58.0000 90.0000 5.0000
    endloop
  endfacet
  facet normal 1.000000 0.000000 0.000000
    outer loop
      vertex 58.0000 66.9000 0.0000
      vertex 58.0000 90.0000 5.0000
      vertex 58.0000 66.9000 5.0000
    endloop
  endfacet
  facet normal 0.000000 1.000000 0.000000
    outer loop
      vertex 58.0000 90.0000 0.0000
      vertex 0.0000 90.0000 0.0000
      vertex 0.0000 90.0000 5.0000
    endloop
  endfacet
  facet normal 0.000000 1.000000 -0.000000
    outer loop
      vertex 58.0000 90.0000 0.0000
      vertex 0.0000 90.0000 5.0000
      vertex 58.0000 90.0000 5.0000
    endloop
  endfacet
  facet normal -1.000000 0.000000 0.000000
    outer loop
      vertex 0.0000 90.0000 0.0000
      vertex 0.0000 66.9000 0.0000
      vertex 0.0000 66.9000 5.0000
    endloop
  endfacet
  facet normal -1.000000 0.000000 0.000000
    outer loop
      vertex 0.0000 90.0000 0.0000
      vertex 0.0000 66.9000 5.0000
      vertex 0.0000 90.0000 5.0000
    endloop
  endfacet
  facet normal 0.000000 0.000000 -1.000000
    outer loop
      vertex 0.0000 7.9000 0.0000
      vertex 0.0000 66.9000 0.0000
      vertex 6.7500 66.9000 0.0000
    endloop
  endfacet
  facet normal 0.000000 0.000000 -1.000000
    outer loop
      vertex 0.0000 7.9000 0.0000
      vertex 6.7500 66.9000 0.0000
      vertex 6.7500 7.9000 0.0000
    endloop
  endfacet
  facet normal 0.000000 0.000000 1.000000
    outer loop
      vertex 0.0000 7.9000 5.0000
      vertex 6.7500 7.9000 5.0000
      vertex 6.7500 66.9000 5.0000
    endloop
  endfacet
  facet normal 0.000000 0.000000 1.000000
    outer loop
      vertex 0.0000 7.9000 5.0000
      vertex 6.7500 66.9000 5.0000
      vertex 0.0000 66.9000 5.0000
    endloop
  endfacet
  facet normal 0.000000 -1.000000 0.000000
    outer loop
      vertex 0.0000 7.9000 0.0000
      vertex 6.7500 7.9000 0.0000
      vertex 6.7500 7.9000 5.0000
    endloop
  endfacet
  facet normal 0.000000 -1.000000 0.000000
    outer loop
      vertex 0.0000 7.9000 0.0000
      vertex 6.7500 7.9000 5.0000
      vertex 0.0000 7.9000 5.0000
    endloop
  endfacet
  facet normal 1.000000 0.000000 0.000000
    outer loop
      vertex 6.7500 7.9000 0.0000
      vertex 6.7500 66.9000 0.0000
      vertex 6.7500 66.9000 5.0000
    endloop
  endfacet
  facet normal 1.000000 0.000000 0.000000
    outer loop
      vertex 6.7500 7.9000 0.0000
      vertex 6.7500 66.9000 5.0000
      vertex 6.7500 7.9000 5.0000
    endloop
  endfacet
  facet normal 0.000000 1.000000 0.000000
    outer loop
      vertex 6.7500 66.9000 0.0000
      vertex 0.0000 66.9000 0.0000
      vertex 0.0000 66.9000 5.0000
    endloop
  endfacet
  facet normal 0.000000 1.000000 -0.000000
    outer loop
      vertex 6.7500 66.9000 0.0000
      vertex 0.0000 66.9000 5.0000
      vertex 6.7500 66.9000 5.0000
    endloop
  endfacet
  facet normal -1.000000 0.000000 0.000000
    outer loop
      vertex 0.0000 66.9000 0.0000
      vertex 0.0000 7.9000 0.0000
      vertex 0.0000 7.9000 5.0000
    endloop
  endfacet
  facet normal -1.000000 0.000000 0.000000
    outer loop
      vertex 0.0000 66.9000 0.0000
      vertex 0.0000 7.9000 5.0000
      vertex 0.0000 66.9000 5.0000
    endloop
  endfacet
  facet normal 0.000000 0.000000 -1.000000
    outer loop
      vertex 51.2500 7.9000 0.0000
      vertex 51.2500 66.9000 0.0000
      vertex 58.0000 66.9000 0.0000
    endloop
  endfacet
  facet normal 0.000000 0.000000 -1.000000
    outer loop
      vertex 51.2500 7.9000 0.0000
      vertex 58.0000 66.9000 0.0000
      vertex 58.0000 7.9000 0.0000
    endloop
  endfacet
  facet normal 0.000000 0.000000 1.000000
    outer loop
      vertex 51.2500 7.9000 5.0000
      vertex 58.0000 7.9000 5.0000
      vertex 58.0000 66.9000 5.0000
    endloop
  endfacet
  facet normal 0.000000 0.000000 1.000000
    outer loop
      vertex 51.2500 7.9000 5.0000
      vertex 58.0000 66.9000 5.0000
      vertex 51.2500 66.9000 5.0000
    endloop
  endfacet
  facet normal 0.000000 -1.000000 0.000000
    outer loop
      vertex 51.2500 7.9000 0.0000
      vertex 58.0000 7.9000 0.0000
      vertex 58.0000 7.9000 5.0000
    endloop
  endfacet
  facet normal 0.000000 -1.000000 0.000000
    outer loop
      vertex 51.2500 7.9000 0.0000
      vertex 58.0000 7.9000 5.0000
      vertex 51.2500 7.9000 5.0000
    endloop
  endfacet
  facet normal 1.000000 0.000000 0.000000
    outer loop
      vertex 58.0000 7.9000 0.0000
      vertex 58.0000 66.9000 0.0000
      vertex 58.0000 66.9000 5.0000
    endloop
  endfacet
  facet normal 1.000000 0.000000 0.000000
    outer loop
      vertex 58.0000 7.9000 0.0000
      vertex 58.0000 66.9000 5.0000
      vertex 58.0000 7.9000 5.0000
    endloop
  endfacet
  facet normal 0.000000 1.000000 0.000000
    outer loop
      vertex 58.0000 66.9000 0.0000
      vertex 51.2500 66.9000 0.0000
      vertex 51.2500 66.9000 5.0000
    endloop
  endfacet
  facet normal 0.000000 1.000000 -0.000000
    outer loop
      vertex 58.0000 66.9000 0.0000
      vertex 51.2500 66.9000 5.0000
      vertex 58.0000 66.9000 5.0000
    endloop
  endfacet
  facet normal -1.000000 0.000000 0.000000
    outer loop
      vertex 51.2500 66.9000 0.0000
      vertex 51.2500 7.9000 0.0000
      vertex 51.2500 7.9000 5.0000
    endloop
  endfacet
  facet normal -1.000000 0.000000 0.000000
    outer loop
      vertex 51.2500 66.9000 0.0000
      vertex 51.2500 7.9000 5.0000
      vertex 51.2500 66.9000 5.0000
    endloop
  endfacet
  facet normal 0.000000 0.000000 -1.000000
    outer loop
      vertex 3.8000 2.6000 1.4000
      vertex 3.8000 3.6000 1.4000
      vertex 54.2000 3.6000 1.4000
    endloop
  endfacet
  facet normal 0.000000 0.000000 -1.000000
    outer loop
      vertex 3.8000 2.6000 1.4000
      vertex 54.2000 3.6000 1.4000
      vertex 54.2000 2.6000 1.4000
    endloop
  endfacet
  facet normal 0.000000 0.000000 1.000000
    outer loop
      vertex 3.8000 2.6000 5.0000
      vertex 54.2000 2.6000 5.0000
      vertex 54.2000 3.6000 5.0000
    endloop
  endfacet
  facet normal 0.000000 0.000000 1.000000
    outer loop
      vertex 3.8000 2.6000 5.0000
      vertex 54.2000 3.6000 5.0000
      vertex 3.8000 3.6000 5.0000
    endloop
  endfacet
  facet normal 0.000000 -1.000000 0.000000
    outer loop
      vertex 3.8000 2.6000 1.4000
      vertex 54.2000 2.6000 1.4000
      vertex 54.2000 2.6000 5.0000
    endloop
  endfacet
  facet normal 0.000000 -1.000000 0.000000
    outer loop
      vertex 3.8000 2.6000 1.4000
      vertex 54.2000 2.6000 5.0000
      vertex 3.8000 2.6000 5.0000
    endloop
  endfacet
  facet normal 1.000000 0.000000 0.000000
    outer loop
      vertex 54.2000 2.6000 1.4000
      vertex 54.2000 3.6000 1.4000
      vertex 54.2000 3.6000 5.0000
    endloop
  endfacet
  facet normal 1.000000 0.000000 0.000000
    outer loop
      vertex 54.2000 2.6000 1.4000
      vertex 54.2000 3.6000 5.0000
      vertex 54.2000 2.6000 5.0000
    endloop
  endfacet
  facet normal 0.000000 1.000000 0.000000
    outer loop
      vertex 54.2000 3.6000 1.4000
      vertex 3.8000 3.6000 1.4000
      vertex 3.8000 3.6000 5.0000
    endloop
  endfacet
  facet normal 0.000000 1.000000 -0.000000
    outer loop
      vertex 54.2000 3.6000 1.4000
      vertex 3.8000 3.6000 5.0000
      vertex 54.2000 3.6000 5.0000
    endloop
  endfacet
  facet normal -1.000000 0.000000 0.000000
    outer loop
      vertex 3.8000 3.6000 1.4000
      vertex 3.8000 2.6000 1.4000
      vertex 3.8000 2.6000 5.0000
    endloop
  endfacet
  facet normal -1.000000 0.000000 0.000000
    outer loop
      vertex 3.8000 3.6000 1.4000
      vertex 3.8000 2.6000 5.0000
      vertex 3.8000 3.6000 5.0000
    endloop
  endfacet
  facet normal 0.000000 0.000000 -1.000000
    outer loop
      vertex 3.8000 71.2000 1.4000
      vertex 3.8000 72.2000 1.4000
      vertex 54.2000 72.2000 1.4000
    endloop
  endfacet
  facet normal 0.000000 0.000000 -1.000000
    outer loop
      vertex 3.8000 71.2000 1.4000
      vertex 54.2000 72.2000 1.4000
      vertex 54.2000 71.2000 1.4000
    endloop
  endfacet
  facet normal 0.000000 0.000000 1.000000
    outer loop
      vertex 3.8000 71.2000 5.0000
      vertex 54.2000 71.2000 5.0000
      vertex 54.2000 72.2000 5.0000
    endloop
  endfacet
  facet normal 0.000000 0.000000 1.000000
    outer loop
      vertex 3.8000 71.2000 5.0000
      vertex 54.2000 72.2000 5.0000
      vertex 3.8000 72.2000 5.0000
    endloop
  endfacet
  facet normal 0.000000 -1.000000 0.000000
    outer loop
      vertex 3.8000 71.2000 1.4000
      vertex 54.2000 71.2000 1.4000
      vertex 54.2000 71.2000 5.0000
    endloop
  endfacet
  facet normal 0.000000 -1.000000 0.000000
    outer loop
      vertex 3.8000 71.2000 1.4000
      vertex 54.2000 71.2000 5.0000
      vertex 3.8000 71.2000 5.0000
    endloop
  endfacet
  facet normal 1.000000 0.000000 0.000000
    outer loop
      vertex 54.2000 71.2000 1.4000
      vertex 54.2000 72.2000 1.4000
      vertex 54.2000 72.2000 5.0000
    endloop
  endfacet
  facet normal 1.000000 0.000000 0.000000
    outer loop
      vertex 54.2000 71.2000 1.4000
      vertex 54.2000 72.2000 5.0000
      vertex 54.2000 71.2000 5.0000
    endloop
  endfacet
  facet normal 0.000000 1.000000 0.000000
    outer loop
      vertex 54.2000 72.2000 1.4000
      vertex 3.8000 72.2000 1.4000
      vertex 3.8000 72.2000 5.0000
    endloop
  endfacet
  facet normal 0.000000 1.000000 -0.000000
    outer loop
      vertex 54.2000 72.2000 1.4000
      vertex 3.8000 72.2000 5.0000
      vertex 54.2000 72.2000 5.0000
    endloop
  endfacet
  facet normal -1.000000 0.000000 0.000000
    outer loop
      vertex 3.8000 72.2000 1.4000
      vertex 3.8000 71.2000 1.4000
      vertex 3.8000 71.2000 5.0000
    endloop
  endfacet
  facet normal -1.000000 0.000000 0.000000
    outer loop
      vertex 3.8000 72.2000 1.4000
      vertex 3.8000 71.2000 5.0000
      vertex 3.8000 72.2000 5.0000
    endloop
  endfacet
  facet normal 0.000000 0.000000 -1.000000
    outer loop
      vertex 3.8000 2.6000 1.4000
      vertex 3.8000 72.2000 1.4000
      vertex 4.8000 72.2000 1.4000
    endloop
  endfacet
  facet normal 0.000000 0.000000 -1.000000
    outer loop
      vertex 3.8000 2.6000 1.4000
      vertex 4.8000 72.2000 1.4000
      vertex 4.8000 2.6000 1.4000
    endloop
  endfacet
  facet normal 0.000000 0.000000 1.000000
    outer loop
      vertex 3.8000 2.6000 5.0000
      vertex 4.8000 2.6000 5.0000
      vertex 4.8000 72.2000 5.0000
    endloop
  endfacet
  facet normal 0.000000 0.000000 1.000000
    outer loop
      vertex 3.8000 2.6000 5.0000
      vertex 4.8000 72.2000 5.0000
      vertex 3.8000 72.2000 5.0000
    endloop
  endfacet
  facet normal 0.000000 -1.000000 0.000000
    outer loop
      vertex 3.8000 2.6000 1.4000
      vertex 4.8000 2.6000 1.4000
      vertex 4.8000 2.6000 5.0000
    endloop
  endfacet
  facet normal 0.000000 -1.000000 0.000000
    outer loop
      vertex 3.8000 2.6000 1.4000
      vertex 4.8000 2.6000 5.0000
      vertex 3.8000 2.6000 5.0000
    endloop
  endfacet
  facet normal 1.000000 0.000000 0.000000
    outer loop
      vertex 4.8000 2.6000 1.4000
      vertex 4.8000 72.2000 1.4000
      vertex 4.8000 72.2000 5.0000
    endloop
  endfacet
  facet normal 1.000000 0.000000 0.000000
    outer loop
      vertex 4.8000 2.6000 1.4000
      vertex 4.8000 72.2000 5.0000
      vertex 4.8000 2.6000 5.0000
    endloop
  endfacet
  facet normal 0.000000 1.000000 0.000000
    outer loop
      vertex 4.8000 72.2000 1.4000
      vertex 3.8000 72.2000 1.4000
      vertex 3.8000 72.2000 5.0000
    endloop
  endfacet
  facet normal 0.000000 1.000000 -0.000000
    outer loop
      vertex 4.8000 72.2000 1.4000
      vertex 3.8000 72.2000 5.0000
      vertex 4.8000 72.2000 5.0000
    endloop
  endfacet
  facet normal -1.000000 0.000000 0.000000
    outer loop
      vertex 3.8000 72.2000 1.4000
      vertex 3.8000 2.6000 1.4000
      vertex 3.8000 2.6000 5.0000
    endloop
  endfacet
  facet normal -1.000000 0.000000 0.000000
    outer loop
      vertex 3.8000 72.2000 1.4000
      vertex 3.8000 2.6000 5.0000
      vertex 3.8000 72.2000 5.0000
    endloop
  endfacet
  facet normal 0.000000 0.000000 -1.000000
    outer loop
      vertex 53.2000 2.6000 1.4000
      vertex 53.2000 72.2000 1.4000
      vertex 54.2000 72.2000 1.4000
    endloop
  endfacet
  facet normal 0.000000 0.000000 -1.000000
    outer loop
      vertex 53.2000 2.6000 1.4000
      vertex 54.2000 72.2000 1.4000
      vertex 54.2000 2.6000 1.4000
    endloop
  endfacet
  facet normal 0.000000 0.000000 1.000000
    outer loop
      vertex 53.2000 2.6000 5.0000
      vertex 54.2000 2.6000 5.0000
      vertex 54.2000 72.2000 5.0000
    endloop
  endfacet
  facet normal 0.000000 0.000000 1.000000
    outer loop
      vertex 53.2000 2.6000 5.0000
      vertex 54.2000 72.2000 5.0000
      vertex 53.2000 72.2000 5.0000
    endloop
  endfacet
  facet normal 0.000000 -1.000000 0.000000
    outer loop
      vertex 53.2000 2.6000 1.4000
      vertex 54.2000 2.6000 1.4000
      vertex 54.2000 2.6000 5.0000
    endloop
  endfacet
  facet normal 0.000000 -1.000000 0.000000
    outer loop
      vertex 53.2000 2.6000 1.4000
      vertex 54.2000 2.6000 5.0000
      vertex 53.2000 2.6000 5.0000
    endloop
  endfacet
  facet normal 1.000000 0.000000 0.000000
    outer loop
      vertex 54.2000 2.6000 1.4000
      vertex 54.2000 72.2000 1.4000
      vertex 54.2000 72.2000 5.0000
    endloop
  endfacet
  facet normal 1.000000 0.000000 0.000000
    outer loop
      vertex 54.2000 2.6000 1.4000
      vertex 54.2000 72.2000 5.0000
      vertex 54.2000 2.6000 5.0000
    endloop
  endfacet
  facet normal 0.000000 1.000000 0.000000
    outer loop
      vertex 54.2000 72.2000 1.4000
      vertex 53.2000 72.2000 1.4000
      vertex 53.2000 72.2000 5.0000
    endloop
  endfacet
  facet normal 0.000000 1.000000 -0.000000
    outer loop
      vertex 54.2000 72.2000 1.4000
      vertex 53.2000 72.2000 5.0000
      vertex 54.2000 72.2000 5.0000
    endloop
  endfacet
  facet normal -1.000000 0.000000 0.000000
    outer loop
      vertex 53.2000 72.2000 1.4000
      vertex 53.2000 2.6000 1.4000
      vertex 53.2000 2.6000 5.0000
    endloop
  endfacet
  facet normal -1.000000 0.000000 0.000000
    outer loop
      vertex 53.2000 72.2000 1.4000
      vertex 53.2000 2.6000 5.0000
      vertex 53.2000 72.2000 5.0000
    endloop
  endfacet
endsolid kasa